# xmcd
#
# Track frame offsets:
# 150
# 8926
# 19579
# 31548
# 42445
# 53866
# 63193
# 72415
# 82655
# 93251
# 104665
# 105374
# 115165
# 129822
# 142974
# 155183
# 169292
# 185706
# 202205
# 213493
#
# Disc length: 2961 seconds
#
#
# Revision: 2
# Processed by: cddbd v1.5.2PL0 Copyright (c) Steve Scherf et al.
# Submitted via: FreeRIP 2.96 
#
DISCID=100b8f14
DTITLE=Furacão 2000-Twister - Furacão 2000-Twister
DYEAR=1900
DGENRE=Fank
TTITLE0=Abertura Twister
TTITLE1=Twister Treme Tudo-Bonde do Tigrão
TTITLE2=Vai Lacraia-Serginho
TTITLE3=Toma Pressão-Bonde do Vinho-Bonde do Tigrão
TTITLE4=Swing do Vinho-bonde do Vinho
TTITLE5=Égua Pocotó-Serginho
TTITLE6=Novinhas-Rock Bolado
TTITLE7=Sergão-Movimento Funk Clube
TTITLE8=Bate tambor-MC Caue
TTITLE9=Cuidado com a Fura-MC Cruel
TTITLE10=Vinheta-Furacão é o Mundo
TTITLE11=Família Furacão-MC Mascote
TTITLE12=Vem Dançar-MC Dentinho
TTITLE13=Vem Me Amar-Ricardo e Esquisito
TTITLE14=Potência 2000-Sapão
TTITLE15=Tornado Vai Te Pegar-MC Cruel
TTITLE16=Pop Funk-Sapão
TTITLE17=Chatuba-Sapão
TTITLE18=Baile Funk é Lazer-Bobô
TTITLE19=Então Vai-Marquinhos Pixadão
EXTD=
EXTT0=
EXTT1=
EXTT2=
EXTT3=
EXTT4=
EXTT5=
EXTT6=
EXTT7=
EXTT8=
EXTT9=
EXTT10=
EXTT11=
EXTT12=
EXTT13=
EXTT14=
EXTT15=
EXTT16=
EXTT17=
EXTT18=
EXTT19=
PLAYORDER=
